HIERARCHY
ROOT mixamorig:Hips
{
	OFFSET -0.000008 104.274872 1.554316
	CHANNELS 6 Xposition Yposition Zposition Xrotation Yrotation Zrotation
	JOINT mixamorig:Spine
	{
		OFFSET -0.000005 10.181595 0.131519
		CHANNELS 6 Xposition Yposition Zposition Xrotation Yrotation Zrotation
		JOINT mixamorig:Spine1
		{
			OFFSET -0.000000 9.893959 -1.470707
			CHANNELS 6 Xposition Yposition Zposition Xrotation Yrotation Zrotation
			JOINT mixamorig:Spine2
			{
				OFFSET -0.000000 9.220757 -1.370641
				CHANNELS 6 Xposition Yposition Zposition Xrotation Yrotation Zrotation
				JOINT mixamorig:Neck
				{
					OFFSET 0.000001 16.740417 -2.049036
					CHANNELS 6 Xposition Yposition Zposition Xrotation Yrotation Zrotation
					JOINT mixamorig:Head
					{
						OFFSET 0.000000 9.617874 1.685006
						CHANNELS 6 Xposition Yposition Zposition Xrotation Yrotation Zrotation
						JOINT mixamorig:HeadTop_End
						{
							OFFSET 0.000002 22.037354 7.501101
							CHANNELS 6 Xposition Yposition Zposition Xrotation Yrotation Zrotation
							End Site
							{
								OFFSET 0.000168 2310.654297 -282.823242
							}
						}
					}
				}
				JOINT mixamorig:RightShoulder
				{
					OFFSET -4.569970 11.014908 -2.160885
					CHANNELS 6 Xposition Yposition Zposition Xrotation Yrotation Zrotation
					JOINT mixamorig:RightArm
					{
						OFFSET -10.592851 -0.524811 -2.232101
						CHANNELS 6 Xposition Yposition Zposition Xrotation Yrotation Zrotation
						JOINT mixamorig:RightForeArm
						{
							OFFSET -27.841511 0.000031 -0.000004
							CHANNELS 6 Xposition Yposition Zposition Xrotation Yrotation Zrotation
							JOINT mixamorig:RightHand
							{
								OFFSET -28.328831 -0.000015 0.000015
								CHANNELS 6 Xposition Yposition Zposition Xrotation Yrotation Zrotation
								JOINT mixamorig:RightHandThumb1
								{
									OFFSET -2.464806 -1.573990 2.681852
									CHANNELS 6 Xposition Yposition Zposition Xrotation Yrotation Zrotation
									JOINT mixamorig:RightHandThumb2
									{
										OFFSET -3.215179 -1.872803 1.924282
										CHANNELS 6 Xposition Yposition Zposition Xrotation Yrotation Zrotation
										JOINT mixamorig:RightHandThumb3
										{
											OFFSET -2.654831 -1.527969 1.512609
											CHANNELS 6 Xposition Yposition Zposition Xrotation Yrotation Zrotation
											JOINT mixamorig:RightHandThumb4
											{
												OFFSET -2.018814 -1.152008 1.108052
												CHANNELS 6 Xposition Yposition Zposition Xrotation Yrotation Zrotation
												End Site
												{
													OFFSET -188.809540 -114.533607 132.431396
												}
											}
										}
									}
								}
								JOINT mixamorig:RightHandIndex1
								{
									OFFSET -9.108284 -0.517868 2.259835
									CHANNELS 6 Xposition Yposition Zposition Xrotation Yrotation Zrotation
									JOINT mixamorig:RightHandIndex2
									{
										OFFSET -3.699989 0.000000 0.001215
										CHANNELS 6 Xposition Yposition Zposition Xrotation Yrotation Zrotation
										JOINT mixamorig:RightHandIndex3
										{
											OFFSET -2.850006 0.000031 -0.000522
											CHANNELS 6 Xposition Yposition Zposition Xrotation Yrotation Zrotation
											JOINT mixamorig:RightHandIndex4
											{
												OFFSET -2.772186 -0.000015 -0.000020
												CHANNELS 6 Xposition Yposition Zposition Xrotation Yrotation Zrotation
												End Site
												{
													OFFSET -277.218445 0.000000 -0.050231
												}
											}
										}
									}
								}
								JOINT mixamorig:RightHandMiddle1
								{
									OFFSET -9.532516 -0.000031 -0.000023
									CHANNELS 6 Xposition Yposition Zposition Xrotation Yrotation Zrotation
									JOINT mixamorig:RightHandMiddle2
									{
										OFFSET -3.700005 -0.000015 0.003713
										CHANNELS 6 Xposition Yposition Zposition Xrotation Yrotation Zrotation
										JOINT mixamorig:RightHandMiddle3
										{
											OFFSET -2.949974 0.000015 -0.002054
											CHANNELS 6 Xposition Yposition Zposition Xrotation Yrotation Zrotation
											JOINT mixamorig:RightHandMiddle4
											{
												OFFSET -2.946640 0.000000 -0.000156
												CHANNELS 6 Xposition Yposition Zposition Xrotation Yrotation Zrotation
												End Site
												{
													OFFSET -294.664337 0.000000 -0.113670
												}
											}
										}
									}
								}
								JOINT mixamorig:RightHandRing1
								{
									OFFSET -9.103600 -0.043076 -1.865134
									CHANNELS 6 Xposition Yposition Zposition Xrotation Yrotation Zrotation
									JOINT mixamorig:RightHandRing2
									{
										OFFSET -3.379288 0.000000 -0.001055
										CHANNELS 6 Xposition Yposition Zposition Xrotation Yrotation Zrotation
										JOINT mixamorig:RightHandRing3
										{
											OFFSET -2.889687 -0.000015 0.000379
											CHANNELS 6 Xposition Yposition Zposition Xrotation Yrotation Zrotation
											JOINT mixamorig:RightHandRing4
											{
												OFFSET -2.638809 -0.000015 0.000941
												CHANNELS 6 Xposition Yposition Zposition Xrotation Yrotation Zrotation
												End Site
												{
													OFFSET -263.880371 0.000000 0.516020
												}
											}
										}
									}
								}
								JOINT mixamorig:RightHandPinky1
								{
									OFFSET -8.076683 -0.486710 -3.806280
									CHANNELS 6 Xposition Yposition Zposition Xrotation Yrotation Zrotation
									JOINT mixamorig:RightHandPinky2
									{
										OFFSET -3.600014 -0.000015 -0.003747
										CHANNELS 6 Xposition Yposition Zposition Xrotation Yrotation Zrotation
										JOINT mixamorig:RightHandPinky3
										{
											OFFSET -2.099983 0.000000 -0.005739
											CHANNELS 6 Xposition Yposition Zposition Xrotation Yrotation Zrotation
											JOINT mixamorig:RightHandPinky4
											{
												OFFSET -2.115768 -0.000031 -0.003680
												CHANNELS 6 Xposition Yposition Zposition Xrotation Yrotation Zrotation
												End Site
												{
													OFFSET -211.577087 0.000000 -0.350686
												}
											}
										}
									}
								}
							}
						}
					}
				}
				JOINT mixamorig:LeftShoulder
				{
					OFFSET 4.570447 11.014725 -2.160855
					CHANNELS 6 Xposition Yposition Zposition Xrotation Yrotation Zrotation
					JOINT mixamorig:LeftArm
					{
						OFFSET 10.592371 -0.524597 -2.232119
						CHANNELS 6 Xposition Yposition Zposition Xrotation Yrotation Zrotation
						JOINT mixamorig:LeftForeArm
						{
							OFFSET 27.841532 -0.000031 0.000026
							CHANNELS 6 Xposition Yposition Zposition Xrotation Yrotation Zrotation
							JOINT mixamorig:LeftHand
							{
								OFFSET 28.328846 -0.000061 0.000022
								CHANNELS 6 Xposition Yposition Zposition Xrotation Yrotation Zrotation
								JOINT mixamorig:LeftHandThumb1
								{
									OFFSET 2.466141 -1.576172 2.681732
									CHANNELS 6 Xposition Yposition Zposition Xrotation Yrotation Zrotation
									JOINT mixamorig:LeftHandThumb2
									{
										OFFSET 3.217812 -1.872070 1.916482
										CHANNELS 6 Xposition Yposition Zposition Xrotation Yrotation Zrotation
										JOINT mixamorig:LeftHandThumb3
										{
											OFFSET 2.656029 -1.528778 1.514513
											CHANNELS 6 Xposition Yposition Zposition Xrotation Yrotation Zrotation
											JOINT mixamorig:LeftHandThumb4
											{
												OFFSET 2.020889 -1.154053 1.115139
												CHANNELS 6 Xposition Yposition Zposition Xrotation Yrotation Zrotation
												End Site
												{
													OFFSET 190.885437 -115.081749 130.048782
												}
											}
										}
									}
								}
								JOINT mixamorig:LeftHandIndex1
								{
									OFFSET 9.109314 -0.518021 2.259871
									CHANNELS 6 Xposition Yposition Zposition Xrotation Yrotation Zrotation
									JOINT mixamorig:LeftHandIndex2
									{
										OFFSET 3.699989 0.000000 -0.000322
										CHANNELS 6 Xposition Yposition Zposition Xrotation Yrotation Zrotation
										JOINT mixamorig:LeftHandIndex3
										{
											OFFSET 2.850006 0.000000 0.000352
											CHANNELS 6 Xposition Yposition Zposition Xrotation Yrotation Zrotation
											JOINT mixamorig:LeftHandIndex4
											{
												OFFSET 2.774864 -0.000031 -0.000027
												CHANNELS 6 Xposition Yposition Zposition Xrotation Yrotation Zrotation
												End Site
												{
													OFFSET 277.486267 0.000000 -0.009857
												}
											}
										}
									}
								}
								JOINT mixamorig:LeftHandMiddle1
								{
									OFFSET 9.533394 0.000061 0.000044
									CHANNELS 6 Xposition Yposition Zposition Xrotation Yrotation Zrotation
									JOINT mixamorig:LeftHandMiddle2
									{
										OFFSET 3.699989 -0.000015 -0.000231
										CHANNELS 6 Xposition Yposition Zposition Xrotation Yrotation Zrotation
										JOINT mixamorig:LeftHandMiddle3
										{
											OFFSET 2.949997 -0.000015 -0.000059
											CHANNELS 6 Xposition Yposition Zposition Xrotation Yrotation Zrotation
											JOINT mixamorig:LeftHandMiddle4
											{
												OFFSET 2.952896 0.000031 0.000063
												CHANNELS 6 Xposition Yposition Zposition Xrotation Yrotation Zrotation
												End Site
												{
													OFFSET 295.289337 0.000000 0.022810
												}
											}
										}
									}
								}
								JOINT mixamorig:LeftHandRing1
								{
									OFFSET 9.104523 -0.042999 -1.865074
									CHANNELS 6 Xposition Yposition Zposition Xrotation Yrotation Zrotation
									JOINT mixamorig:LeftHandRing2
									{
										OFFSET 3.150009 -0.000031 0.000043
										CHANNELS 6 Xposition Yposition Zposition Xrotation Yrotation Zrotation
										JOINT mixamorig:LeftHandRing3
										{
											OFFSET 2.949982 -0.000015 0.000040
											CHANNELS 6 Xposition Yposition Zposition Xrotation Yrotation Zrotation
											JOINT mixamorig:LeftHandRing4
											{
												OFFSET 2.644348 0.000000 0.000057
												CHANNELS 6 Xposition Yposition Zposition Xrotation Yrotation Zrotation
												End Site
												{
													OFFSET 264.434631 0.000000 0.012105
												}
											}
										}
									}
								}
								JOINT mixamorig:LeftHandPinky1
								{
									OFFSET 8.077789 -0.486847 -3.806259
									CHANNELS 6 Xposition Yposition Zposition Xrotation Yrotation Zrotation
									JOINT mixamorig:LeftHandPinky2
									{
										OFFSET 3.599953 0.000031 0.014727
										CHANNELS 6 Xposition Yposition Zposition Xrotation Yrotation Zrotation
										JOINT mixamorig:LeftHandPinky3
										{
											OFFSET 2.100021 0.000015 0.007705
											CHANNELS 6 Xposition Yposition Zposition Xrotation Yrotation Zrotation
											JOINT mixamorig:LeftHandPinky4
											{
												OFFSET 2.125504 0.000031 0.007517
												CHANNELS 6 Xposition Yposition Zposition Xrotation Yrotation Zrotation
												End Site
												{
													OFFSET 212.550781 0.000000 0.625752
												}
											}
										}
									}
								}
							}
						}
					}
				}
			}
		}
	}
	JOINT mixamorig:RightUpLeg
	{
		OFFSET -8.207787 -6.751648 -1.599560
		CHANNELS 6 Xposition Yposition Zposition Xrotation Yrotation Zrotation
		JOINT mixamorig:RightLeg
		{
			OFFSET -0.000002 -44.370117 0.345942
			CHANNELS 6 Xposition Yposition Zposition Xrotation Yrotation Zrotation
			JOINT mixamorig:RightFoot
			{
				OFFSET 0.000003 -44.423679 -3.043532
				CHANNELS 6 Xposition Yposition Zposition Xrotation Yrotation Zrotation
				JOINT mixamorig:RightToeBase
				{
					OFFSET -0.000002 -8.728671 10.710558
					CHANNELS 6 Xposition Yposition Zposition Xrotation Yrotation Zrotation
					JOINT mixamorig:RightToe_End
					{
						OFFSET -0.000001 -0.000679 9.278119
						CHANNELS 6 Xposition Yposition Zposition Xrotation Yrotation Zrotation
						End Site
						{
							OFFSET 0.000000 -0.067690 927.812134
						}
					}
				}
			}
		}
	}
	JOINT mixamorig:LeftUpLeg
	{
		OFFSET 8.207793 -6.751686 -1.599556
		CHANNELS 6 Xposition Yposition Zposition Xrotation Yrotation Zrotation
		JOINT mixamorig:LeftLeg
		{
			OFFSET -0.000004 -44.370014 0.346954
			CHANNELS 6 Xposition Yposition Zposition Xrotation Yrotation Zrotation
			JOINT mixamorig:LeftFoot
			{
				OFFSET -0.000001 -44.423672 -3.044401
				CHANNELS 6 Xposition Yposition Zposition Xrotation Yrotation Zrotation
				JOINT mixamorig:LeftToeBase
				{
					OFFSET -0.000002 -8.728669 10.710558
					CHANNELS 6 Xposition Yposition Zposition Xrotation Yrotation Zrotation
					JOINT mixamorig:LeftToe_End
					{
						OFFSET -0.000003 -0.000679 9.278133
						CHANNELS 6 Xposition Yposition Zposition Xrotation Yrotation Zrotation
						End Site
						{
							OFFSET 0.000000 -0.068021 927.813477
						}
					}
				}
			}
		}
	}
}
MOTION
Frames: 3
Frame Time: 0.033333
0.000006 104.270477 1.554256 0.000010 0.000003 -0.000113 -0.000005 10.181587 0.131522 0.000001 -0.000003 0.000084 -0.000000 9.893967 -1.470711 0.000001 0.000000 -0.000000 -0.000000 9.220802 -1.370642 0.000000 -0.000000 -0.000000 0.000001 16.740433 -2.049030 0.000000 -0.000000 -0.000000 0.000000 9.617859 1.685014 0.000000 0.000000 0.000000 0.000002 22.037384 7.501101 0.000000 -0.000000 0.000000 -4.569968 11.014880 -2.160881 0.000008 0.000001 -0.000038 -10.592880 -0.524730 -2.231947 75.517140 21.970951 -17.100552 -27.841532 0.000015 0.000532 -60.452099 111.675259 81.293157 -28.328821 0.000021 0.000023 -0.000321 -0.000046 0.000007 -2.464430 -1.573922 2.682381 -28.084660 -153.499609 30.559110 -3.215273 -1.872566 1.924643 155.418632 33.685076 15.402642 -2.654925 -1.527901 1.513108 152.710148 24.880581 -43.209894 -2.018827 -1.152017 1.108060 0.000000 -0.000002 0.000005 -9.108376 -0.517571 2.260167 107.871042 17.343215 -23.720347 -3.700066 0.000316 0.001543 101.202326 13.789677 -16.720991 -2.850079 0.000366 -0.000255 98.707811 11.105904 -12.920933 -2.772174 -0.000001 -0.000019 -0.000000 0.000000 0.000001 -9.532578 0.000265 0.000250 93.580183 16.770742 -17.988206 -3.700071 0.000329 0.003971 95.078842 11.187938 -12.116606 -2.950045 0.000346 -0.001806 93.718610 10.247851 -10.924031 -2.946625 0.000002 -0.000151 0.000001 0.000001 0.000000 -9.103694 -0.042752 -1.864881 93.521730 18.034778 -19.110494 -3.379324 0.000337 -0.000808 94.431935 8.403742 -9.096009 -2.889742 0.000352 0.000614 95.606700 4.838349 -5.384646 -2.638824 -0.000018 0.000947 -0.000002 -0.000001 -0.000000 -8.076746 -0.486380 -3.806033 84.869403 17.001717 -15.424107 -3.600036 0.000288 -0.003541 89.062238 7.423429 -6.958649 -2.099989 0.000329 -0.005508 89.684154 3.844363 -3.610777 -2.115768 -0.000067 -0.003679 -0.000000 -0.000000 -0.000003 4.570446 11.014691 -2.160851 -0.000018 0.000010 -0.000021 10.592372 -0.524500 -2.232327 72.619022 -1.031452 0.758035 27.841824 0.000092 -0.000195 95.604316 -68.359381 73.665025 28.328833 -0.000014 0.000015 0.000021 -0.000089 -0.000000 2.466217 -1.576096 2.681845 0.501746 162.472497 -85.661514 3.217863 -1.871819 1.916406 164.093533 -23.644763 33.799574 2.656095 -1.528686 1.514501 134.499457 -29.339101 58.251262 2.020888 -1.154096 1.115142 0.000001 0.000002 0.000001 9.109372 -0.517878 2.259738 74.590392 -18.427114 14.076298 3.700034 0.000103 -0.000465 73.214751 -18.997876 14.184539 2.850060 0.000157 0.000225 71.195146 -15.278073 10.967708 2.774879 -0.000044 -0.000029 0.000001 0.000000 0.000000 9.533463 0.000189 -0.000080 73.894970 -16.935205 12.770762 3.700048 0.000134 -0.000378 79.300176 -16.848946 13.992635 2.950064 0.000120 -0.000197 79.298401 -18.925939 15.731568 2.952873 -0.000041 0.000064 -0.000002 0.000001 0.000003 9.104567 -0.042871 -1.865219 71.555746 -16.277229 11.769378 3.150051 0.000167 -0.000093 80.141246 -13.958333 11.760320 2.950023 0.000154 -0.000070 82.447357 -14.625489 12.832088 2.644316 0.000031 0.000055 -0.000000 -0.000002 0.000001 8.077816 -0.486744 -3.806395 64.954498 -16.628364 11.015124 3.599990 0.000148 0.014578 68.732487 -13.789850 9.811750 2.100033 0.000152 0.007560 73.535606 -13.238348 10.281223 2.125502 -0.000018 0.007518 -0.000001 -0.000001 0.000004 -8.207786 -6.751667 -1.599560 -0.077001 -0.000003 0.000080 -0.000002 -44.370110 0.345938 0.153719 -0.000000 -0.000000 0.000000 -44.423679 -3.043532 -0.076700 0.000000 -0.000002 -0.000006 -8.728667 10.710559 -0.000009 -0.000000 -0.000000 -0.000001 -0.000679 9.278123 0.000000 -0.000000 -0.000000 8.207792 -6.751710 -1.599556 -0.074518 -0.000003 0.000081 -0.000002 -44.370014 0.346960 0.148822 0.000002 0.000000 -0.000001 -44.423664 -3.044403 -0.074314 0.000000 -0.000002 -0.000004 -8.728671 10.710558 0.000007 -0.000000 -0.000000 0.000000 -0.000680 9.278137 -0.000000 0.000000 -0.000001 
0.000006 104.270477 1.554256 0.000010 0.000003 -0.000113 -0.000005 10.181587 0.131522 0.000001 -0.000003 0.000084 -0.000000 9.893967 -1.470711 0.000001 0.000000 -0.000000 -0.000000 9.220802 -1.370642 0.000000 -0.000000 -0.000000 0.000001 16.740433 -2.049030 0.000000 -0.000000 -0.000000 0.000000 9.617859 1.685014 0.000000 0.000000 0.000000 0.000002 22.037384 7.501101 0.000000 -0.000000 0.000000 -4.569968 11.014880 -2.160881 0.000008 0.000001 -0.000038 -10.592865 -0.524794 -2.231869 76.329693 36.437427 -29.007257 -27.841532 -0.000003 0.000536 -56.993612 105.088649 70.645323 -28.328833 0.000018 0.000026 -0.000320 -0.000043 0.000005 -2.464394 -1.573799 2.682337 -44.771996 -160.406569 -2.559853 -3.215266 -1.872510 1.924608 149.094027 33.144541 21.987465 -2.654969 -1.527886 1.513054 147.279342 27.578443 -29.756675 -2.018827 -1.152016 1.108049 -0.000005 -0.000002 0.000005 -9.108373 -0.517550 2.260139 103.707557 14.537651 -18.506847 -3.700048 0.000324 0.001523 101.687255 11.740189 -14.363490 -2.850079 0.000372 -0.000228 101.110009 10.006878 -12.147259 -2.772178 0.000001 -0.000019 0.000000 -0.000001 -0.000000 -9.532576 0.000269 0.000238 91.929353 16.214048 -16.908977 -3.700074 0.000316 0.003974 92.247340 12.301771 -12.691402 -2.950057 0.000333 -0.001796 94.924746 11.638713 -12.668795 -2.946624 0.000002 -0.000157 -0.000005 -0.000001 -0.000000 -9.103707 -0.042759 -1.864900 88.962039 19.398094 -19.011497 -3.379345 0.000311 -0.000816 91.169187 10.078666 -10.303141 -2.889749 0.000354 0.000665 98.505781 6.312354 -7.376427 -2.638803 -0.000028 0.000943 -0.000003 -0.000000 -0.000002 -8.076746 -0.486388 -3.806045 81.634168 18.614115 -15.979793 -3.600046 0.000257 -0.003514 87.533826 8.718215 -8.010672 -2.100003 0.000328 -0.005488 92.166737 4.917781 -4.881704 -2.115782 -0.000054 -0.003680 -0.000002 -0.000004 -0.000000 4.570446 11.014691 -2.160851 -0.000018 0.000010 -0.000021 10.592414 -0.524472 -2.232360 72.324538 -18.060135 13.250883 27.841806 0.000053 -0.000209 98.080601 -73.722091 81.636122 28.328842 -0.000028 0.000017 0.000025 -0.000090 -0.000001 2.466224 -1.575857 2.681775 17.153484 201.084061 -154.055955 3.217863 -1.871961 1.916481 159.194211 -14.128921 74.850868 2.656086 -1.528734 1.514512 135.632462 -28.864632 68.160609 2.020891 -1.154067 1.115145 -0.000001 -0.000002 -0.000001 9.109387 -0.517894 2.259752 75.382947 -21.741812 16.869891 3.700036 0.000139 -0.000468 75.078614 -14.095940 10.867271 2.850065 0.000157 0.000192 74.092308 -10.231992 7.731165 2.774885 -0.000031 -0.000025 0.000000 0.000003 0.000001 9.533478 0.000162 -0.000081 74.464683 -21.044708 16.061432 3.700027 0.000163 -0.000391 79.885804 -11.959214 10.023293 2.950061 0.000165 -0.000208 80.682122 -10.367015 8.813792 2.952867 -0.000015 0.000065 -0.000000 -0.000001 -0.000000 9.104597 -0.042891 -1.865213 74.844817 -20.360932 15.649372 3.150044 0.000166 -0.000103 79.601675 -13.886827 11.589290 2.949996 0.000160 -0.000087 79.654991 -10.151387 8.474258 2.644308 0.000031 0.000060 -0.000000 0.000001 0.000001 8.077844 -0.486761 -3.806395 66.791867 -21.204543 14.489712 3.600004 0.000122 0.014591 67.041408 -18.068261 12.389622 2.100018 0.000140 0.007551 68.865471 -12.869330 9.182236 2.125505 -0.000025 0.007515 0.000000 -0.000000 -0.000000 -8.207786 -6.751667 -1.599560 -0.077001 -0.000003 0.000080 -0.000002 -44.370110 0.345938 0.153719 -0.000000 -0.000000 0.000000 -44.423679 -3.043532 -0.076700 0.000000 -0.000002 -0.000006 -8.728667 10.710559 -0.000009 -0.000000 -0.000000 -0.000001 -0.000679 9.278123 0.000000 -0.000000 -0.000000 8.207792 -6.751710 -1.599556 -0.074518 -0.000003 0.000081 -0.000002 -44.370014 0.346960 0.148822 0.000002 0.000000 -0.000001 -44.423664 -3.044403 -0.074314 0.000000 -0.000002 -0.000004 -8.728671 10.710558 0.000007 -0.000000 -0.000000 0.000000 -0.000680 9.278137 -0.000000 0.000000 -0.000001 
0.000006 104.270477 1.554256 0.000010 0.000003 -0.000113 -0.000005 10.181587 0.131522 0.000001 -0.000003 0.000084 -0.000000 9.893967 -1.470711 0.000001 0.000000 -0.000000 -0.000000 9.220802 -1.370642 0.000000 -0.000000 -0.000000 0.000001 16.740433 -2.049030 0.000000 -0.000000 -0.000000 0.000000 9.617859 1.685014 0.000000 0.000000 0.000000 0.000002 22.037384 7.501101 0.000000 -0.000000 0.000000 -4.569968 11.014880 -2.160881 0.000008 0.000001 -0.000038 -10.592850 -0.524800 -2.231827 76.489226 44.061444 -35.379014 -27.841543 -0.000005 0.000553 -54.838612 102.707897 65.950305 -28.328831 0.000007 0.000020 -0.000320 -0.000044 0.000005 -2.464413 -1.573819 2.682348 -43.324443 -159.526923 0.711001 -3.215250 -1.872540 1.924627 149.874021 33.117016 20.209331 -2.654967 -1.527875 1.513070 147.238825 27.388997 -31.810267 -2.018823 -1.151996 1.108064 -0.000004 0.000000 0.000004 -9.108378 -0.517539 2.260145 104.096427 14.812490 -18.983329 -3.700051 0.000319 0.001538 102.316801 11.817186 -14.619071 -2.850086 0.000380 -0.000219 101.739773 10.062977 -12.351904 -2.772148 -0.000016 -0.000016 -0.000000 0.000001 0.000000 -9.532598 0.000290 0.000232 92.319521 16.383413 -17.199217 -3.700083 0.000305 0.003970 92.668755 12.424339 -12.912532 -2.950069 0.000345 -0.001820 94.939117 11.685501 -12.722864 -2.946642 0.000002 -0.000153 -0.000002 -0.000000 0.000001 -9.103718 -0.042753 -1.864890 89.349072 19.886045 -19.620562 -3.379342 0.000325 -0.000812 91.437122 10.668233 -10.955600 -2.889742 0.000353 0.000662 98.509428 6.639662 -7.756636 -2.638790 -0.000019 0.000940 -0.000001 -0.000000 0.000004 -8.076757 -0.486382 -3.806049 82.034786 19.083533 -16.502032 -3.600045 0.000269 -0.003521 87.854517 9.358799 -8.670012 -2.100019 0.000328 -0.005488 92.618198 5.454017 -5.479744 -2.115755 -0.000037 -0.003679 0.000004 -0.000000 -0.000005 4.570446 11.014691 -2.160851 -0.000018 0.000010 -0.000021 10.592442 -0.524475 -2.232392 71.784878 -27.345132 19.968955 27.841831 0.000019 -0.000189 99.250039 -77.710013 86.906808 28.328829 -0.000029 0.000027 0.000023 -0.000088 -0.000002 2.466089 -1.575783 2.681817 15.651921 222.987918 -194.192865 3.217821 -1.872002 1.916534 152.944683 -13.797809 91.248138 2.656094 -1.528723 1.514521 138.294433 -27.525345 71.065823 2.020898 -1.154090 1.115133 0.000002 0.000004 0.000006 9.109383 -0.517873 2.259748 83.169909 -22.587489 20.086820 3.700047 0.000148 -0.000470 86.366253 -18.941407 17.812773 2.850043 0.000197 0.000202 85.681882 -14.041883 13.029450 2.774881 -0.000030 -0.000027 -0.000002 -0.000000 -0.000001 9.533459 0.000193 -0.000087 79.537942 -20.979392 17.512255 3.700055 0.000161 -0.000365 83.631377 -16.377189 14.668333 2.950067 0.000166 -0.000186 83.788560 -11.945052 10.725724 2.952845 -0.000030 0.000061 0.000002 0.000001 -0.000001 9.104576 -0.042861 -1.865237 76.889939 -19.455650 15.501775 3.150052 0.000167 -0.000085 80.814689 -15.410987 13.142560 2.950027 0.000168 -0.000083 81.688120 -9.629458 8.331293 2.644318 0.000015 0.000057 0.000001 0.000002 -0.000000 8.077832 -0.486733 -3.806395 70.119712 -19.456279 14.155389 3.600018 0.000171 0.014574 73.923281 -15.560197 12.138651 2.100049 0.000173 0.007540 76.943911 -10.124596 8.430006 2.125511 -0.000000 0.007516 0.000000 -0.000001 -0.000000 -8.207786 -6.751667 -1.599560 -0.077001 -0.000003 0.000080 -0.000002 -44.370110 0.345938 0.153719 -0.000000 -0.000000 0.000000 -44.423679 -3.043532 -0.076700 0.000000 -0.000002 -0.000006 -8.728667 10.710559 -0.000009 -0.000000 -0.000000 -0.000001 -0.000679 9.278123 0.000000 -0.000000 -0.000000 8.207792 -6.751710 -1.599556 -0.074518 -0.000003 0.000081 -0.000002 -44.370014 0.346960 0.148822 0.000002 0.000000 -0.000001 -44.423664 -3.044403 -0.074314 0.000000 -0.000002 -0.000004 -8.728671 10.710558 0.000007 -0.000000 -0.000000 0.000000 -0.000680 9.278137 -0.000000 0.000000 -0.000001 
